<svg width="18" height="18" viewBox="0 0 18 18" fill="none" xmlns="http://www.w3.org/2000/svg">
<g clip-path="url(#clip0_1_561)">
<path fill-rule="evenodd" clip-rule="evenodd" d="M11.0023 4.74725C11.1603 4.90545 11.2491 5.1199 11.2491 5.3435C11.2491 5.56709 11.1603 5.78154 11.0023 5.93975L7.94233 8.99975L11.0023 12.0597C11.0852 12.137 11.1517 12.2301 11.1978 12.3336C11.2439 12.4371 11.2687 12.5489 11.2707 12.6622C11.2727 12.7754 11.2519 12.888 11.2095 12.993C11.167 13.0981 11.1039 13.1935 11.0237 13.2737C10.9436 13.3538 10.8482 13.4169 10.7431 13.4594C10.6381 13.5018 10.5255 13.5227 10.4122 13.5207C10.2989 13.5187 10.1872 13.4939 10.0837 13.4478C9.98022 13.4016 9.88707 13.3351 9.80983 13.2522L6.15358 9.596C5.99557 9.43779 5.90682 9.22334 5.90682 8.99975C5.90682 8.77615 5.99557 8.5617 6.15358 8.4035L9.80983 4.74725C9.96803 4.58924 10.1825 4.50049 10.4061 4.50049C10.6297 4.50049 10.8441 4.58924 11.0023 4.74725Z" fill="#71717B"/>
</g>
<defs>
<clipPath id="clip0_1_561">
<rect width="18" height="18" fill="white" transform="translate(18) rotate(90)"/>
</clipPath>
</defs>
</svg>
