<svg width="423" height="40" viewBox="0 0 423 40" fill="none" xmlns="http://www.w3.org/2000/svg">
<g filter="url(#filter0_dd_1_210)">
<rect x="3" y="2" width="417" height="34" rx="7" fill="white"/>
</g>
<rect x="2.5" y="1.5" width="418" height="35" rx="7.5" stroke="#09090B" stroke-opacity="0.1"/>
<g clip-path="url(#clip0_1_210)">
<path d="M41.8011 16.3636C41.7415 15.8598 41.4995 15.4688 41.0753 15.1903C40.651 14.9119 40.1307 14.7727 39.5142 14.7727C39.0634 14.7727 38.669 14.8456 38.331 14.9915C37.9962 15.1373 37.7344 15.3378 37.5455 15.593C37.3598 15.8482 37.267 16.1383 37.267 16.4631C37.267 16.7348 37.3317 16.9685 37.4609 17.1641C37.5935 17.3563 37.7625 17.517 37.968 17.6463C38.1735 17.7723 38.389 17.8767 38.6143 17.9595C38.8397 18.0391 39.0469 18.1037 39.2358 18.1534L40.2699 18.4318C40.535 18.5014 40.83 18.5975 41.1548 18.7202C41.483 18.8428 41.7962 19.0102 42.0945 19.2223C42.3961 19.4311 42.6446 19.6996 42.8402 20.0277C43.0357 20.3558 43.1335 20.7585 43.1335 21.2358C43.1335 21.786 42.9893 22.2831 42.701 22.7273C42.416 23.1714 41.9983 23.5244 41.4482 23.7862C40.9013 24.0481 40.2367 24.179 39.4545 24.179C38.7254 24.179 38.094 24.0613 37.5604 23.826C37.0301 23.5907 36.6125 23.2625 36.3075 22.8416C36.0059 22.4207 35.8352 21.9318 35.7955 21.375H37.0682C37.1013 21.7595 37.2306 22.0777 37.456 22.3295C37.6847 22.5781 37.973 22.7637 38.321 22.8864C38.6723 23.0057 39.0502 23.0653 39.4545 23.0653C39.9252 23.0653 40.3478 22.9891 40.7223 22.8366C41.0968 22.6809 41.3935 22.4654 41.6122 22.1903C41.831 21.9119 41.9403 21.5871 41.9403 21.2159C41.9403 20.8778 41.8459 20.6027 41.657 20.3906C41.468 20.1785 41.2195 20.0062 40.9112 19.8736C40.603 19.741 40.2699 19.625 39.9119 19.5256L38.6591 19.1676C37.8636 18.9389 37.2339 18.6125 36.7699 18.1882C36.3059 17.764 36.0739 17.2088 36.0739 16.5227C36.0739 15.9527 36.228 15.4555 36.5362 15.0312C36.8478 14.6037 37.2654 14.2723 37.7891 14.0369C38.3161 13.7983 38.9044 13.679 39.554 13.679C40.2102 13.679 40.7936 13.7966 41.304 14.032C41.8144 14.264 42.2188 14.5821 42.517 14.9865C42.8187 15.3909 42.9777 15.8499 42.9943 16.3636H41.8011ZM48.2033 24.1591C47.4675 24.1591 46.8328 23.9967 46.2992 23.6719C45.7689 23.3438 45.3596 22.8864 45.0712 22.2997C44.7862 21.7098 44.6436 21.0237 44.6436 20.2415C44.6436 19.4593 44.7862 18.7699 45.0712 18.1733C45.3596 17.5734 45.7606 17.1061 46.2743 16.7713C46.7914 16.4332 47.3946 16.2642 48.084 16.2642C48.4817 16.2642 48.8745 16.3305 49.2623 16.4631C49.65 16.5956 50.003 16.8111 50.3212 17.1094C50.6394 17.4044 50.8929 17.7955 51.0819 18.2827C51.2708 18.7699 51.3652 19.3698 51.3652 20.0824V20.5795H45.4789V19.5653H50.1721C50.1721 19.1345 50.0859 18.75 49.9135 18.4119C49.7445 18.0739 49.5025 17.8071 49.1877 17.6115C48.8761 17.416 48.5082 17.3182 48.084 17.3182C47.6167 17.3182 47.2123 17.4342 46.8709 17.6662C46.5328 17.8949 46.2727 18.1932 46.0904 18.5611C45.9081 18.929 45.8169 19.3234 45.8169 19.7443V20.4205C45.8169 20.9972 45.9164 21.486 46.1152 21.8871C46.3174 22.2848 46.5975 22.5881 46.9554 22.7969C47.3134 23.0024 47.7293 23.1051 48.2033 23.1051C48.5115 23.1051 48.79 23.062 49.0385 22.9759C49.2904 22.8864 49.5075 22.7538 49.6898 22.5781C49.8721 22.3991 50.013 22.1771 50.1124 21.9119L51.2459 22.2301C51.1266 22.6146 50.9261 22.9527 50.6444 23.2443C50.3626 23.5327 50.0146 23.758 49.6003 23.9205C49.186 24.0795 48.7203 24.1591 48.2033 24.1591ZM55.3972 24.179C54.9133 24.179 54.4741 24.0878 54.0797 23.9055C53.6853 23.7199 53.3721 23.4531 53.1401 23.1051C52.9081 22.7538 52.7921 22.3295 52.7921 21.8324C52.7921 21.3949 52.8783 21.0402 53.0506 20.7685C53.223 20.4934 53.4533 20.2779 53.7417 20.1222C54.03 19.9664 54.3482 19.8504 54.6962 19.7741C55.0475 19.6946 55.4005 19.6316 55.7551 19.5852C56.2192 19.5256 56.5953 19.4808 56.8837 19.451C57.1754 19.4179 57.3875 19.3632 57.5201 19.2869C57.656 19.2107 57.7239 19.0781 57.7239 18.8892V18.8494C57.7239 18.3589 57.5897 17.9777 57.3212 17.706C57.056 17.4342 56.6534 17.2983 56.1131 17.2983C55.553 17.2983 55.1138 17.4209 54.7956 17.6662C54.4775 17.9115 54.2537 18.1733 54.1245 18.4517L53.0108 18.054C53.2097 17.59 53.4748 17.2287 53.8063 16.9702C54.141 16.7083 54.5056 16.526 54.9 16.4233C55.2978 16.3172 55.6889 16.2642 56.0733 16.2642C56.3186 16.2642 56.6003 16.294 56.9185 16.3537C57.24 16.41 57.5499 16.5277 57.8482 16.7067C58.1498 16.8857 58.4 17.1558 58.5989 17.517C58.7978 17.8783 58.8972 18.3622 58.8972 18.9688V24H57.7239V22.9659H57.6642C57.5847 23.1316 57.4521 23.3089 57.2665 23.4979C57.0809 23.6868 56.834 23.8475 56.5257 23.9801C56.2175 24.1127 55.8413 24.179 55.3972 24.179ZM55.5762 23.125C56.0402 23.125 56.4313 23.0339 56.7495 22.8516C57.071 22.6693 57.3129 22.4339 57.4753 22.1456C57.641 21.8572 57.7239 21.554 57.7239 21.2358V20.1619C57.6742 20.2216 57.5648 20.2763 57.3958 20.326C57.2301 20.3724 57.0378 20.4138 56.8191 20.4503C56.6036 20.4834 56.3932 20.5133 56.1877 20.5398C55.9855 20.563 55.8214 20.5829 55.6955 20.5994C55.3906 20.6392 55.1055 20.7038 54.8404 20.7933C54.5785 20.8795 54.3664 21.0104 54.204 21.1861C54.0449 21.3584 53.9654 21.5937 53.9654 21.892C53.9654 22.2997 54.1162 22.608 54.4178 22.8168C54.7227 23.0223 55.1088 23.125 55.5762 23.125ZM61.0387 24V16.3636H62.1722V17.517H62.2518C62.391 17.1392 62.6429 16.8326 63.0075 16.5973C63.372 16.362 63.783 16.2443 64.2404 16.2443C64.3266 16.2443 64.4343 16.246 64.5636 16.2493C64.6928 16.2526 64.7906 16.2576 64.8569 16.2642V17.4574C64.8171 17.4474 64.726 17.4325 64.5835 17.4126C64.4442 17.3894 64.2968 17.3778 64.141 17.3778C63.7698 17.3778 63.4383 17.4557 63.1467 17.6115C62.8583 17.764 62.6296 17.9761 62.4606 18.2479C62.2949 18.5163 62.212 18.8229 62.212 19.1676V24H61.0387ZM69.1175 24.1591C68.4016 24.1591 67.7852 23.9901 67.2681 23.652C66.7511 23.3139 66.3533 22.8482 66.0749 22.255C65.7965 21.6617 65.6573 20.9839 65.6573 20.2216C65.6573 19.446 65.7998 18.7616 66.0849 18.1683C66.3732 17.5717 66.7743 17.1061 67.288 16.7713C67.805 16.4332 68.4083 16.2642 69.0977 16.2642C69.6346 16.2642 70.1185 16.3636 70.5494 16.5625C70.9802 16.7614 71.3332 17.0398 71.6083 17.3977C71.8834 17.7557 72.0541 18.1733 72.1204 18.6506H70.9471C70.8576 18.3026 70.6587 17.9943 70.3505 17.7259C70.0456 17.4541 69.6346 17.3182 69.1175 17.3182C68.6602 17.3182 68.2591 17.4375 67.9144 17.6761C67.573 17.9115 67.3062 18.2446 67.114 18.6754C66.9251 19.103 66.8306 19.6051 66.8306 20.1818C66.8306 20.7718 66.9234 21.2855 67.109 21.723C67.2979 22.1605 67.5631 22.5002 67.9045 22.7422C68.2492 22.9841 68.6535 23.1051 69.1175 23.1051C69.4225 23.1051 69.6992 23.0521 69.9478 22.946C70.1964 22.84 70.4068 22.6875 70.5792 22.4886C70.7515 22.2898 70.8742 22.0511 70.9471 21.7727H72.1204C72.0541 22.2235 71.89 22.6295 71.6282 22.9908C71.3697 23.3487 71.0266 23.6338 70.5991 23.8459C70.1748 24.0547 69.681 24.1591 69.1175 24.1591ZM75.0089 19.4062V24H73.8356V13.8182H75.0089V17.5568H75.1083C75.2873 17.1624 75.5558 16.8492 75.9137 16.6172C76.275 16.3819 76.7556 16.2642 77.3555 16.2642C77.8758 16.2642 78.3316 16.3686 78.7227 16.5774C79.1138 16.7829 79.417 17.0994 79.6325 17.527C79.8512 17.9512 79.9606 18.4915 79.9606 19.1477V24H78.7873V19.2273C78.7873 18.6207 78.6299 18.1518 78.315 17.8203C78.0034 17.4856 77.5709 17.3182 77.0174 17.3182C76.6329 17.3182 76.2882 17.3994 75.9833 17.5618C75.6817 17.7242 75.4431 17.9612 75.2674 18.2727C75.0951 18.5843 75.0089 18.9621 75.0089 19.4062ZM86.2037 24V13.8182H89.644C90.4428 13.8182 91.0957 13.9624 91.6028 14.2507C92.1132 14.5357 92.4911 14.9219 92.7363 15.4091C92.9816 15.8963 93.1042 16.4399 93.1042 17.0398C93.1042 17.6397 92.9816 18.1849 92.7363 18.6754C92.4944 19.166 92.1199 19.5571 91.6127 19.8487C91.1056 20.1371 90.456 20.2812 89.6639 20.2812H87.198V19.1875H89.6241C90.171 19.1875 90.6101 19.093 90.9416 18.9041C91.273 18.7152 91.5133 18.46 91.6625 18.1385C91.8149 17.8137 91.8912 17.4474 91.8912 17.0398C91.8912 16.6321 91.8149 16.2675 91.6625 15.946C91.5133 15.6245 91.2714 15.3726 90.9366 15.1903C90.6019 15.0047 90.1577 14.9119 89.6042 14.9119H87.4366V24H86.2037ZM97.9515 24.1591C97.2621 24.1591 96.6573 23.995 96.1369 23.6669C95.6199 23.3388 95.2155 22.8797 94.9238 22.2898C94.6355 21.6998 94.4913 21.0104 94.4913 20.2216C94.4913 19.4261 94.6355 18.7318 94.9238 18.1385C95.2155 17.5452 95.6199 17.0845 96.1369 16.7564C96.6573 16.4283 97.2621 16.2642 97.9515 16.2642C98.6409 16.2642 99.2441 16.4283 99.7612 16.7564C100.282 17.0845 100.686 17.5452 100.974 18.1385C101.266 18.7318 101.412 19.4261 101.412 20.2216C101.412 21.0104 101.266 21.6998 100.974 22.2898C100.686 22.8797 100.282 23.3388 99.7612 23.6669C99.2441 23.995 98.6409 24.1591 97.9515 24.1591ZM97.9515 23.1051C98.4752 23.1051 98.9061 22.9709 99.2441 22.7024C99.5822 22.4339 99.8324 22.081 99.9949 21.6435C100.157 21.206 100.238 20.732 100.238 20.2216C100.238 19.7112 100.157 19.2356 99.9949 18.7947C99.8324 18.3539 99.5822 17.9976 99.2441 17.7259C98.9061 17.4541 98.4752 17.3182 97.9515 17.3182C97.4279 17.3182 96.997 17.4541 96.6589 17.7259C96.3208 17.9976 96.0706 18.3539 95.9082 18.7947C95.7458 19.2356 95.6646 19.7112 95.6646 20.2216C95.6646 20.732 95.7458 21.206 95.9082 21.6435C96.0706 22.081 96.3208 22.4339 96.6589 22.7024C96.997 22.9709 97.4279 23.1051 97.9515 23.1051ZM108.612 18.0739L107.558 18.3722C107.492 18.1965 107.394 18.0258 107.265 17.8601C107.139 17.6911 106.966 17.5518 106.748 17.4425C106.529 17.3331 106.249 17.2784 105.907 17.2784C105.44 17.2784 105.051 17.3861 104.739 17.6016C104.431 17.8137 104.277 18.0838 104.277 18.4119C104.277 18.7036 104.383 18.9339 104.595 19.103C104.807 19.272 105.138 19.4129 105.589 19.5256L106.723 19.804C107.405 19.9697 107.914 20.2232 108.249 20.5646C108.584 20.9027 108.751 21.3385 108.751 21.8722C108.751 22.3097 108.625 22.7008 108.373 23.0455C108.125 23.3902 107.777 23.6619 107.329 23.8608C106.882 24.0597 106.361 24.1591 105.768 24.1591C104.989 24.1591 104.345 23.9901 103.834 23.652C103.324 23.3139 103.001 22.8201 102.865 22.1705L103.978 21.892C104.084 22.303 104.285 22.6113 104.58 22.8168C104.878 23.0223 105.268 23.125 105.748 23.125C106.295 23.125 106.729 23.009 107.051 22.777C107.376 22.5417 107.538 22.2599 107.538 21.9318C107.538 21.6667 107.445 21.4446 107.26 21.2656C107.074 21.0833 106.789 20.9474 106.404 20.858L105.132 20.5597C104.432 20.3939 103.919 20.1371 103.591 19.7891C103.266 19.4377 103.103 18.9986 103.103 18.4716C103.103 18.0407 103.224 17.6596 103.466 17.3281C103.712 16.9967 104.045 16.7365 104.466 16.5476C104.89 16.3587 105.37 16.2642 105.907 16.2642C106.663 16.2642 107.256 16.4299 107.687 16.7614C108.121 17.0928 108.43 17.5303 108.612 18.0739ZM113.838 16.3636V17.358H109.881V16.3636H113.838ZM111.034 14.5341H112.208V21.8125C112.208 22.1439 112.256 22.3925 112.352 22.5582C112.451 22.7206 112.577 22.83 112.73 22.8864C112.885 22.9394 113.049 22.9659 113.222 22.9659C113.351 22.9659 113.457 22.9593 113.54 22.946C113.623 22.9295 113.689 22.9162 113.739 22.9062L113.977 23.9602C113.898 23.9901 113.787 24.0199 113.644 24.0497C113.502 24.0829 113.321 24.0994 113.102 24.0994C112.771 24.0994 112.446 24.0282 112.128 23.8857C111.813 23.7431 111.551 23.526 111.343 23.2344C111.137 22.9427 111.034 22.5748 111.034 22.1307V14.5341ZM120.876 18.0739L119.822 18.3722C119.755 18.1965 119.657 18.0258 119.528 17.8601C119.402 17.6911 119.23 17.5518 119.011 17.4425C118.792 17.3331 118.512 17.2784 118.171 17.2784C117.704 17.2784 117.314 17.3861 117.003 17.6016C116.694 17.8137 116.54 18.0838 116.54 18.4119C116.54 18.7036 116.646 18.9339 116.858 19.103C117.071 19.272 117.402 19.4129 117.853 19.5256L118.986 19.804C119.669 19.9697 120.178 20.2232 120.513 20.5646C120.847 20.9027 121.015 21.3385 121.015 21.8722C121.015 22.3097 120.889 22.7008 120.637 23.0455C120.388 23.3902 120.04 23.6619 119.593 23.8608C119.145 24.0597 118.625 24.1591 118.032 24.1591C117.253 24.1591 116.608 23.9901 116.098 23.652C115.587 23.3139 115.264 22.8201 115.128 22.1705L116.242 21.892C116.348 22.303 116.549 22.6113 116.844 22.8168C117.142 23.0223 117.531 23.125 118.012 23.125C118.559 23.125 118.993 23.009 119.314 22.777C119.639 22.5417 119.802 22.2599 119.802 21.9318C119.802 21.6667 119.709 21.4446 119.523 21.2656C119.338 21.0833 119.053 20.9474 118.668 20.858L117.395 20.5597C116.696 20.3939 116.182 20.1371 115.854 19.7891C115.529 19.4377 115.367 18.9986 115.367 18.4716C115.367 18.0407 115.488 17.6596 115.73 17.3281C115.975 16.9967 116.308 16.7365 116.729 16.5476C117.153 16.3587 117.634 16.2642 118.171 16.2642C118.927 16.2642 119.52 16.4299 119.951 16.7614C120.385 17.0928 120.693 17.5303 120.876 18.0739Z" fill="#71717B"/>
</g>
<path fill-rule="evenodd" clip-rule="evenodd" d="M21.965 22.026C20.9497 22.7739 19.6893 23.1106 18.4363 22.9686C17.1833 22.8266 16.0303 22.2164 15.2081 21.2602C14.386 20.304 13.9555 19.0725 14.003 17.8124C14.0504 16.5522 14.5722 15.3566 15.4639 14.4649C16.3556 13.5732 17.5512 13.0514 18.8114 13.004C20.0715 12.9565 21.303 13.387 22.2592 14.2091C23.2154 15.0313 23.8256 16.1843 23.9676 17.4373C24.1096 18.6903 23.7729 19.9507 23.025 20.966L25.78 23.72C25.8537 23.7887 25.9128 23.8715 25.9538 23.9635C25.9948 24.0555 26.0168 24.1548 26.0186 24.2555C26.0204 24.3562 26.0019 24.4562 25.9641 24.5496C25.9264 24.643 25.8703 24.7278 25.799 24.799C25.7278 24.8703 25.643 24.9264 25.5496 24.9641C25.4562 25.0018 25.3562 25.0204 25.2555 25.0186C25.1548 25.0168 25.0555 24.9948 24.9635 24.9538C24.8715 24.9128 24.7887 24.8537 24.72 24.78L21.965 22.026ZM22.5 18C22.5 18.9283 22.1313 19.8185 21.4749 20.4749C20.8185 21.1312 19.9283 21.5 19 21.5C18.0717 21.5 17.1815 21.1312 16.5251 20.4749C15.8688 19.8185 15.5 18.9283 15.5 18C15.5 17.0717 15.8688 16.1815 16.5251 15.5251C17.1815 14.8687 18.0717 14.5 19 14.5C19.9283 14.5 20.8185 14.8687 21.4749 15.5251C22.1313 16.1815 22.5 17.0717 22.5 18Z" fill="#71717B"/>
<defs>
<filter id="filter0_dd_1_210" x="0" y="0" width="423" height="40" filterUnits="userSpaceOnUse" color-interpolation-filters="sRGB">
<feFlood flood-opacity="0" result="BackgroundImageFix"/>
<feColorMatrix in="SourceAlpha" type="matrix" values="0 0 0 0 0 0 0 0 0 0 0 0 0 0 0 0 0 0 127 0" result="hardAlpha"/>
<feMorphology radius="1" operator="erode" in="SourceAlpha" result="effect1_dropShadow_1_210"/>
<feOffset dy="1"/>
<feGaussianBlur stdDeviation="1"/>
<feComposite in2="hardAlpha" operator="out"/>
<feColorMatrix type="matrix" values="0 0 0 0 0 0 0 0 0 0 0 0 0 0 0 0 0 0 0.1 0"/>
<feBlend mode="normal" in2="BackgroundImageFix" result="effect1_dropShadow_1_210"/>
<feColorMatrix in="SourceAlpha" type="matrix" values="0 0 0 0 0 0 0 0 0 0 0 0 0 0 0 0 0 0 127 0" result="hardAlpha"/>
<feOffset dy="1"/>
<feGaussianBlur stdDeviation="1.5"/>
<feComposite in2="hardAlpha" operator="out"/>
<feColorMatrix type="matrix" values="0 0 0 0 0 0 0 0 0 0 0 0 0 0 0 0 0 0 0.1 0"/>
<feBlend mode="normal" in2="effect1_dropShadow_1_210" result="effect2_dropShadow_1_210"/>
<feBlend mode="normal" in="SourceGraphic" in2="effect2_dropShadow_1_210" result="shape"/>
</filter>
<clipPath id="clip0_1_210">
<rect width="374" height="17" fill="white" transform="translate(35 10)"/>
</clipPath>
</defs>
</svg>
