<svg width="16" height="16" viewBox="0 0 16 16" fill="none" xmlns="http://www.w3.org/2000/svg">
<g clip-path="url(#clip0_1_569)">
<path d="M2.66663 3.99996C2.66663 3.64634 2.8071 3.3072 3.05715 3.05715C3.3072 2.8071 3.64634 2.66663 3.99996 2.66663H12C12.3536 2.66663 12.6927 2.8071 12.9428 3.05715C13.1928 3.3072 13.3333 3.64634 13.3333 3.99996V12C13.3333 12.3536 13.1928 12.6927 12.9428 12.9428C12.6927 13.1928 12.3536 13.3333 12 13.3333H3.99996C3.64634 13.3333 3.3072 13.1928 3.05715 12.9428C2.8071 12.6927 2.66663 12.3536 2.66663 12V3.99996Z" stroke="#71717B" stroke-width="1.25" stroke-linecap="round" stroke-linejoin="round"/>
<path d="M10 2.66663V13.3333" stroke="#71717B" stroke-width="1.25" stroke-linecap="round" stroke-linejoin="round"/>
</g>
<defs>
<clipPath id="clip0_1_569">
<rect width="16" height="16" fill="white"/>
</clipPath>
</defs>
</svg>
