<svg width="13" height="13" viewBox="0 0 13 13" fill="none" xmlns="http://www.w3.org/2000/svg">
<path fill-rule="evenodd" clip-rule="evenodd" d="M7.96501 9.026C6.94973 9.77393 5.68935 10.1106 4.43634 9.96861C3.18334 9.8266 2.03027 9.21638 1.20814 8.2602C0.386007 7.30402 -0.0444659 6.0725 0.00296072 4.81237C0.0503873 3.55224 0.572211 2.35656 1.46389 1.46488C2.35557 0.573202 3.55124 0.0513791 4.81138 0.00395254C6.07151 -0.0434741 7.30302 0.386999 8.2592 1.20913C9.21538 2.03126 9.82561 3.18433 9.96762 4.43734C10.1096 5.69034 9.77294 6.95073 9.02501 7.966L11.78 10.72C11.8537 10.7887 11.9128 10.8715 11.9538 10.9635C11.9948 11.0555 12.0168 11.1548 12.0186 11.2555C12.0204 11.3562 12.0019 11.4562 11.9641 11.5496C11.9264 11.643 11.8703 11.7278 11.799 11.799C11.7278 11.8703 11.643 11.9264 11.5496 11.9641C11.4562 12.0018 11.3562 12.0204 11.2555 12.0186C11.1548 12.0168 11.0555 11.9948 10.9635 11.9538C10.8715 11.9128 10.7887 11.8537 10.72 11.78L7.96501 9.026ZM8.50001 5C8.50001 5.92826 8.13126 6.81849 7.47488 7.47487C6.8185 8.13125 5.92826 8.5 5.00001 8.5C4.07175 8.5 3.18151 8.13125 2.52513 7.47487C1.86876 6.81849 1.50001 5.92826 1.50001 5C1.50001 4.07174 1.86876 3.1815 2.52513 2.52512C3.18151 1.86875 4.07175 1.5 5.00001 1.5C5.92826 1.5 6.8185 1.86875 7.47488 2.52512C8.13126 3.1815 8.50001 4.07174 8.50001 5Z" fill="#71717B"/>
</svg>
